<mxfile host="app.diagrams.net" modified="2023-08-06T23:19:00.538Z" agent="Mozilla/5.0 (Macintosh; Intel Mac OS X 10_15_7) AppleWebKit/537.36 (KHTML, like Gecko) Chrome/115.0.0.0 Safari/537.36" version="21.6.5" etag="zr06t-fcYKqyjNiERCch" type="github">
  <diagram name="Page-1" id="MGoMMJ6sYR7ZLiqwTN77">
    <mxGraphModel>
      <root>
        <mxCell id="0" />
        <mxCell id="1" parent="0" />
      </root>
    </mxGraphModel>
  </diagram>
</mxfile>
